HIERARCHY
ROOT Hips
{
	OFFSET 0.000000 0.000000 0.000000 
	CHANNELS 6 Xposition Yposition Zposition Yrotation Zrotation Xrotation 
	JOINT Lumbar
	{
		OFFSET 0.000000 0.000000 0.000000 
		CHANNELS 3 Zrotation Xrotation Yrotation
		JOINT Neck
		{
			OFFSET 0.000000 0.445665 0.000000 
			CHANNELS 3 Zrotation Xrotation Yrotation
			End Site
			{
				OFFSET 0.000000 0.227535 0.000000 
			}
		}
		JOINT RightShoulder
		{
			OFFSET 0.019635 0.377685 0.194865 
			CHANNELS 3 Zrotation Xrotation Yrotation
			JOINT RightElbow
			{
				OFFSET 0.000000 -0.243375 0.000000 
				CHANNELS 2 Zrotation Yrotation
				JOINT RightWrist
				{
					OFFSET 0.000000 -0.264825 0.000000 
					CHANNELS 2 Zrotation Xrotation
					End Site
					{
						OFFSET 0.006600 -0.176220 0.000990 
					}
				}
			}
		}
		JOINT LeftShoulder
		{
			OFFSET 0.019635 0.377685 -0.194865 
			CHANNELS 3 Zrotation Xrotation Yrotation
			JOINT LeftElbow
			{
				OFFSET 0.000000 -0.243375 0.000000 
				CHANNELS 2 Zrotation Yrotation
				JOINT LeftWrist
				{
					OFFSET 0.000000 -0.264825 0.000000 
					CHANNELS 2 Zrotation Xrotation
					End Site
					{
						OFFSET 0.006600 -0.176220 -0.000990 
					}
				}
			}
		}
	}
	JOINT RightHip
	{
		OFFSET 0.052140 -0.069960 0.075570 
		CHANNELS 3 Zrotation Xrotation Yrotation
		JOINT RightKnee
		{
			OFFSET 0.000000 -0.402270 0.000000 
			CHANNELS 1 Zrotation
			JOINT RightAnkle
			{
				OFFSET 0.000000 -0.404085 0.000000 
				CHANNELS 3 Zrotation Xrotation Yrotation
				End Site
				{
					OFFSET 0.204105 -0.089430 0.008415 
				}
			}
		}
	}
	JOINT LeftHip
	{
		OFFSET 0.052140 -0.069960 -0.075570 
		CHANNELS 3 Zrotation Xrotation Yrotation
		JOINT LeftKnee
		{
			OFFSET 0.000000 -0.402270 0.000000 
			CHANNELS 1 Zrotation
			JOINT LeftAnkle
			{
				OFFSET 0.000000 -0.404085 0.000000 
				CHANNELS 3 Zrotation Xrotation Yrotation
				End Site
				{
					OFFSET 0.204105 -0.089430 -0.008415 
				}
			}
		}
	}
}
MOTION
Frames: 17
Frame Time: 0.02
0 0.95578 0 184.31827 0 -4.54983 8.19668 3.60733 -2.17832 -5.18086 3.20364 -2.49653 6.2201 -17.25977 -27.72852 6.18081 79.49534 -6.17277 -2.04206 8.29628 9.88272 -2.96669 10.9482 -80.02634 -7.58394 3.16194 -6.49989 9.03202 1.87475 -3.63552 1.49221 -2.8791 -4.55359 -6.36329 -0.02904 -12.76347 -4.13899 6.36268 2.86698 12.89592
-0.00014 0.95576 -0.00029 184.31829 0 -4.54594 8.15664 3.5895 -2.10905 -5.1192 3.12685 -2.4196 5.98407 -16.56364 -23.20328 6.29293 79.55766 -5.40291 -1.17454 7.99625 9.56309 -4.3167 10.87248 -80.01649 -7.33048 2.93485 -6.54537 9.0833 3.22828 -3.56783 1.35581 -3.12948 -5.90858 -6.36112 0.03926 -11.25657 -4.14193 6.40509 3.07418 11.38846
-0.00029 0.95574 -0.00058 184.31926 0 -4.542 8.11661 3.57165 -2.04056 -5.05766 3.05093 -2.34342 5.74768 -15.87125 -18.68094 6.40661 79.6306 -4.63181 -0.31402 7.69608 9.24319 -5.66298 10.79552 -80.00694 -7.07601 2.70711 -6.59075 9.13413 4.56713 -3.5004 1.22081 -3.37665 -7.2497 -6.35905 0.10709 -9.76218 -4.14466 6.44691 3.2798 9.8926
-0.00044 0.95571 -0.00087 184.32378 0 -4.53792 8.07692 3.5535 -1.9746 -4.99644 2.97738 -2.26971 5.50866 -15.18508 -14.11376 6.52695 79.75364 -3.84456 0.52716 7.39321 8.91835 -7.00334 10.71248 -79.99256 -6.81744 2.47558 -6.6364 9.18357 5.85331 -3.43344 1.09118 -3.6114 -8.54119 -6.35786 0.17382 -8.30351 -4.14627 6.48728 3.48127 8.42922
-0.00056 0.95569 -0.00117 184.30921 0 -4.53474 8.03631 3.53688 -1.89538 -4.93406 2.89088 -2.18318 5.28493 -14.46361 -9.7692 6.61122 79.61971 -3.13843 1.47101 7.10561 8.61871 -8.37029 10.66122 -79.9967 -6.5834 2.26527 -6.68089 9.24027 7.4099 -3.3641 0.93447 -3.90953 -10.08672 -6.35261 0.2465 -6.6561 -4.15345 6.5359 3.70491 6.79477
-0.00074 0.95567 -0.00144 184.33521 0 -4.52954 7.9971 3.51707 -1.84419 -4.87381 2.83212 -2.12368 5.02816 -13.81913 -4.96832 6.77223 80.02368 -2.26447 2.19661 6.78537 8.26676 -9.68281 10.54306 -79.96645 -6.29582 2.00951 -6.72762 9.28162 8.39887 -3.29976 0.83426 -4.07497 -11.09943 -6.35555 0.30646 -5.40921 -4.14912 6.56667 3.88132 5.52309
-0.00112 0.95564 -0.00158 184.47666 0 -4.51938 7.96553 3.48743 -1.87271 -4.82131 2.84889 -2.14136 4.67766 -13.36391 1.35891 7.1524 82.02895 -0.85925 2.31886 6.36791 7.74991 -10.84491 10.22763 -79.79485 -5.86423 1.62384 -6.78334 9.27962 7.7392 -3.24876 0.90106 -3.85052 -10.56253 -6.38539 0.3322 -5.27746 -4.10923 6.55009 3.92825 5.26069
-0.00155 0.95562 -0.00168 184.65858 0 -4.50706 7.9346 3.45473 -1.92918 -4.77054 2.89387 -2.18588 4.29409 -12.99041 8.10388 7.60873 84.55877 0.70471 2.22114 5.91835 7.18387 -11.95026 9.84657 -79.59562 -5.37832 1.19329 -6.84077 9.26227 6.51982 -3.20288 1.0231 -3.49577 -9.50065 -6.42273 0.34498 -5.54835 -4.0583 6.5151 3.9274 5.36298
-0.00193 0.95561 -0.0018 184.81995 0 -4.49533 7.90096 3.42405 -1.97138 -4.71773 2.92671 -2.21649 3.92657 -12.59385 14.49398 8.02646 86.77503 2.15349 2.22442 5.48753 6.65245 -13.0871 9.50327 -79.4406 -4.913 0.78486 -6.89576 9.25256 5.60949 -3.1548 1.11264 -3.21611 -8.73017 -6.45389 0.36315 -5.62889 -4.01493 6.4873 3.9478 5.29315
-0.00242 0.95556 -0.00192 184.99048 0 -4.48528 7.87775 3.3907 -2.02007 -4.67028 2.95677 -2.25431 3.55394 -12.13705 21.58407 8.46256 89.30588 3.78291 2.22278 5.03922 6.06759 -14.21252 9.1266 -79.15715 -4.46118 0.36667 -6.95811 9.24009 4.47188 -3.10591 1.23279 -2.87113 -7.74027 -6.49676 0.38339 -5.74021 -3.96115 6.46457 3.97004 5.24987
-0.00268 0.95558 -0.00203 185.15148 0 -4.47119 7.83268 3.36219 -2.06202 -4.61201 2.99919 -2.28353 3.18518 -11.82626 27.30996 8.87651 91.30921 5.07481 2.17979 4.61975 5.58451 -15.33217 8.80377 -79.12819 -3.97315 -0.03871 -7.0051 9.22967 3.67034 -3.06028 1.30305 -2.62916 -7.07831 -6.51701 0.39625 -5.88355 -3.92604 6.42675 3.97725 5.23849
-0.00234 0.95576 -0.00212 185.27691 0 -4.44668 7.7291 3.34775 -2.07721 -4.52337 3.07032 -2.28208 2.8251 -11.88896 29.21591 9.22793 91.70071 5.38678 2.07129 4.28681 5.37558 -16.58393 8.64551 -79.8634 -3.35717 -0.42475 -7.0129 9.22915 3.97097 -3.01928 1.21559 -2.72198 -7.48804 -6.47305 0.3917 -6.01228 -3.94842 6.35291 3.95341 5.22061
-0.00176 0.956 -0.00221 185.39128 0 -4.41812 7.60287 3.33823 -2.0848 -4.42333 3.1528 -2.27115 2.4716 -12.09772 29.72513 9.55121 91.54779 5.3546 1.92982 3.98403 5.27421 -17.804 8.54339 -80.84517 -2.7144 -0.79123 -7.00443 9.23111 4.62205 -2.98186 1.07708 -2.91986 -8.23881 -6.40592 0.38018 -6.16021 -3.98941 6.26424 3.91627 5.22321
-0.00127 0.95621 -0.00231 185.51021 0 -4.39135 7.48602 3.3266 -2.09682 -4.32919 3.2289 -2.26473 2.12209 -12.24577 30.84224 9.87611 91.66242 5.48688 1.80677 3.66822 5.13607 -18.95426 8.41605 -81.67856 -2.11079 -1.14906 -7.00108 9.23162 5.08846 -2.94501 0.96638 -3.05708 -8.80884 -6.34954 0.37199 -6.30223 -4.01967 6.18164 3.88615 5.21993
-0.00087 0.95643 -0.00237 185.6323 0 -4.36486 7.37408 3.31466 -2.10602 -4.23404 3.31046 -2.2582 1.74325 -12.37216 32.08906 10.25091 91.71241 5.59362 1.66124 3.34898 4.9454 -20.4697 8.28647 -82.66555 -1.39098 -1.58287 -7.00762 9.23303 5.64316 -2.89953 0.83878 -3.24283 -9.46959 -6.29309 0.36272 -6.44621 -4.05891 6.10142 3.85054 5.21497
-0.00022 0.95665 -0.00251 185.74493 0 -4.33669 7.24524 3.30415 -2.11853 -4.13578 3.38385 -2.24953 1.42586 -12.57805 32.72639 10.51398 91.75834 5.66608 1.55795 3.04377 4.8899 -21.20313 8.17413 -83.39 -0.90804 -1.85272 -6.98941 9.23324 6.10376 -2.87223 0.73271 -3.35597 -10.02881 -6.23043 0.35412 -6.5857 -4.0843 6.0127 3.82345 5.21355
0.00094 0.95681 -0.00284 185.83199 0 -4.30626 7.08589 3.2999 -2.14505 -4.05223 3.42413 -2.23594 1.29015 -12.96055 32.03869 10.47627 91.94315 5.75883 1.57707 2.77526 5.18555 -19.91271 8.11038 -83.34267 -1.08129 -1.67885 -6.90878 9.23065 6.23002 -2.89936 0.70554 -3.2266 -10.23281 -6.1625 0.34997 -6.704 -4.06445 5.90658 3.8267 5.21577
